<svg version="1.1" id="Layer_1" xmlns="http://www.w3.org/2000/svg" xmlns:xlink="http://www.w3.org/1999/xlink" x="0px" y="0px"
	 width="100%" viewBox="0 0 1000 563" enable-background="new 0 0 1000 563" xml:space="preserve">
<path fill="#FFFFFF" opacity="1.000000" stroke="none" 
	d="
M459.126892,563.596741 
	C307.872131,564.000000 156.744247,563.987000 5.616443,564.080078 
	C2.084990,564.082275 0.886907,563.629395 0.889664,559.618652 
	C1.016670,374.832825 1.012672,190.046921 0.906020,5.261075 
	C0.903958,1.688662 1.598230,0.899308 5.236845,0.901081 
	C231.178757,1.011149 457.120728,1.000000 683.531372,1.000000 
	C684.104309,1.234199 684.208557,1.468399 684.123718,2.036859 
	C683.040527,3.163316 681.934875,3.538097 680.831604,3.889719 
	C660.730835,10.296114 654.612610,31.492989 662.499817,49.312820 
	C666.020996,57.268333 671.544067,63.478439 677.761902,69.746979 
	C678.661011,73.205261 678.148926,76.377480 678.397522,79.510674 
	C678.948059,86.447861 682.919678,91.042061 688.785034,91.525108 
	C694.945129,92.032448 699.421936,88.044807 700.969299,80.908875 
	C701.680176,77.630287 701.526489,74.311264 701.943359,70.646713 
	C702.922302,67.772476 705.252380,66.540230 706.957520,64.763443 
	C715.601624,55.756218 721.057434,45.147945 720.577881,32.577488 
	C719.987976,17.116920 710.893066,7.726994 696.360962,2.606392 
	C695.931641,2.148875 695.807007,1.924769 695.841187,1.350331 
	C796.295959,1.000000 896.591980,1.017041 996.887878,0.922003 
	C1000.067017,0.918990 1001.109680,1.230646 1001.107239,4.885033 
	C1000.985168,189.982681 1000.983948,375.080414 1001.113281,560.178101 
	C1001.115967,563.961853 999.873535,564.069946 996.824768,564.067505 
	C896.195679,563.985901 795.566467,564.000000 694.468628,564.000000 
	C693.903687,563.754883 693.807434,563.509766 693.935791,562.940063 
	C699.834717,560.599365 705.869141,560.254883 711.680725,558.800476 
	C731.921875,553.735046 749.527344,543.788696 764.097168,529.141785 
	C783.746277,509.388672 795.364319,485.576324 797.868652,457.454071 
	C800.705383,425.598999 791.540161,397.665344 771.619385,372.981445 
	C770.266235,371.304749 768.604797,369.810730 768.877930,367.038391 
	C770.536011,365.622955 772.198425,365.749756 773.865479,365.940491 
	C790.756714,367.872681 807.086731,365.244598 822.796753,359.160950 
	C848.249878,349.304291 865.850098,330.796875 878.431702,307.115326 
	C892.960205,279.769165 898.318970,250.373474 896.489624,219.730286 
	C895.175354,197.716583 889.746643,176.637436 877.758423,157.764145 
	C862.595459,133.892654 841.306335,120.510498 812.467590,120.289894 
	C808.371155,120.258553 804.140930,121.235924 799.933838,118.992729 
	C799.595276,114.736618 802.962891,112.446686 804.492554,108.869949 
	C808.890869,106.185966 813.464966,104.534874 816.853027,100.846870 
	C822.921692,94.240959 824.274780,87.500465 820.676086,80.297066 
	C817.923218,74.786827 811.436096,70.957764 805.612244,71.405586 
	C799.141724,71.903130 792.898926,76.698349 791.008850,82.661652 
	C789.519836,87.359459 789.136108,92.084610 790.566467,96.897171 
	C791.180847,98.964478 791.962341,101.001915 792.185059,103.552338 
	C790.997864,108.791687 790.113342,113.624779 793.655396,118.405472 
	C793.246277,120.600906 791.816956,121.047974 790.289734,121.243477 
	C775.441101,123.144264 760.752747,125.839172 746.350037,129.983109 
	C745.387939,130.259949 744.372681,130.186417 743.007080,129.875519 
	C740.032715,127.891647 741.511108,125.603889 742.033203,123.464569 
	C742.953491,119.693703 744.943237,116.112762 744.108704,111.519302 
	C740.409668,113.676308 739.409668,117.154961 738.045593,120.365593 
	C736.116211,124.906906 735.670776,130.031631 732.333801,134.366104 
	C722.533630,137.895432 713.205444,141.640701 703.924744,145.507019 
	C702.254517,146.202805 700.645813,147.106537 698.363525,146.653870 
	C696.754272,145.820190 696.302673,144.579269 695.771667,143.347916 
	C692.870483,136.620529 687.073242,133.763794 680.589661,135.818604 
	C675.043579,137.576294 672.354675,143.007965 673.527039,150.005432 
	C673.854248,151.958572 674.970154,153.744293 674.633179,156.198563 
	C673.489807,158.480408 671.608398,159.214249 669.774536,159.972763 
	C652.090576,167.287109 633.963135,173.016998 614.845032,175.110794 
	C609.065796,175.743729 603.253601,175.313629 597.053467,175.356201 
	C594.407227,175.302719 592.428284,174.504898 590.608948,173.243896 
	C570.448486,159.270462 548.630432,148.846481 524.887146,142.540390 
	C523.440063,142.156067 521.979553,141.766556 520.648315,140.318741 
	C519.140686,136.614914 519.859131,133.084793 519.688538,129.619034 
	C518.327637,101.969162 506.978302,79.390602 485.421021,61.967827 
	C478.350128,56.253059 470.180115,52.988895 461.278473,51.988800 
	C438.773621,49.460396 417.475983,52.631870 398.668365,66.398544 
	C392.324341,71.042206 387.683807,76.981674 384.866882,84.338478 
	C384.273651,85.887764 383.756012,87.482544 382.450623,89.112900 
	C377.817993,91.125481 373.155151,90.827904 368.863220,90.088387 
	C359.475037,88.470779 350.196136,90.001419 340.991425,90.628983 
	C311.691254,92.626640 283.454346,99.741608 256.397888,111.137505 
	C208.937134,131.127472 169.425186,161.297119 140.082199,203.948929 
	C122.050652,230.158890 110.785469,259.134613 106.544357,290.773682 
	C100.922852,332.710724 104.486984,373.605133 121.213577,412.749084 
	C144.379105,466.961639 182.978943,505.325653 239.067108,525.046204 
	C259.534149,532.242371 280.836060,535.170776 302.460876,534.537109 
	C317.778839,534.088257 332.927521,531.561157 348.222595,527.804504 
	C351.592316,527.678894 353.972168,529.184509 356.376312,530.652466 
	C367.938538,537.712158 379.719543,544.317932 393.229523,548.224426 
	C410.912048,554.870056 428.907074,558.377014 447.194427,560.550903 
	C450.809387,560.980652 454.418213,561.378418 458.352234,562.334473 
	C458.900543,562.754272 459.077179,562.973877 459.126892,563.596741 
z"/>
<path fill="#AFAFAF" opacity="1.000000" stroke="none" 
	d="
M768.742432,366.644287 
	C776.062988,376.328186 783.134155,385.695435 788.342957,396.429504 
	C808.944946,438.885712 801.255127,490.851227 769.242249,525.495422 
	C749.091187,547.302856 724.384094,559.816589 694.496826,563.118469 
	C692.952332,563.762573 691.718933,563.324219 690.280518,563.779602 
	C685.643127,564.000000 681.286194,564.000000 676.464661,564.000000 
	C674.931030,563.081360 673.646057,563.642578 672.091187,563.484375 
	C650.914124,563.038025 632.587708,555.426819 615.729553,543.840820 
	C607.929688,538.480286 600.670715,532.411560 594.336304,524.768555 
	C577.751770,505.917328 568.460449,484.331940 565.561951,459.769562 
	C562.584778,434.539703 567.920532,411.137146 580.062622,389.127075 
	C582.482544,384.740448 582.599731,381.015137 580.398987,376.475159 
	C576.483643,368.397919 572.785095,360.197723 569.359985,351.888977 
	C568.746155,350.399841 567.710876,348.690704 568.980652,347.187805 
	C570.261230,345.672089 572.108093,346.456787 573.675415,346.827240 
	C582.584839,348.933167 591.457458,351.240936 600.224854,353.826721 
	C605.400757,355.353271 609.093994,354.588776 613.476562,351.401764 
	C633.547058,336.806580 656.160339,329.307739 681.398560,328.644562 
	C712.774902,328.539795 739.577393,339.390961 762.783997,359.597839 
	C765.021240,361.545929 767.391113,363.446045 768.742432,366.644287 
z"/>
<path fill="#313131" opacity="1.000000" stroke="none" 
	d="
M459.340027,563.311768 
	C437.625549,561.396484 416.734833,557.617371 396.396088,551.012512 
	C395.304413,550.658081 394.273865,550.115417 393.024658,549.341431 
	C391.157990,546.766968 391.088776,544.040161 390.752777,541.439697 
	C389.159882,529.111328 388.757599,516.677246 387.570770,504.311127 
	C387.396729,502.497375 387.477203,500.662506 388.168854,498.455627 
	C389.853577,495.742554 392.378113,495.206085 394.711548,494.376587 
	C414.650757,487.288635 435.357544,484.304382 456.332794,482.383118 
	C471.818420,480.964691 487.293518,481.854858 502.769348,481.523468 
	C507.947418,481.412567 513.045105,482.288208 518.533936,483.325012 
	C521.347778,486.686096 520.416809,490.197266 519.846924,493.572876 
	C516.592102,512.853638 513.533508,532.166809 510.255280,551.443542 
	C509.865295,553.736755 509.589386,556.032837 509.493225,558.795288 
	C505.877441,563.615173 500.639862,562.309814 496.091156,562.843567 
	C491.029633,563.437500 485.878632,563.718994 480.372192,563.771606 
	C479.250000,564.000000 478.500000,564.000000 477.375000,564.000000 
	C471.289246,562.847290 465.510773,563.821350 459.340027,563.311768 
z"/>
<path fill="#B0B0B0" opacity="1.000000" stroke="none" 
	d="
M695.809937,1.725119 
	C717.899231,6.805236 727.757385,28.307209 718.219360,50.301880 
	C714.926575,57.895203 710.140320,64.375343 703.307129,69.670975 
	C702.191833,70.764862 701.135010,71.024803 699.558838,70.650497 
	C695.961487,62.763081 694.598755,54.733154 695.655212,46.386208 
	C695.921509,44.282558 696.903381,42.263268 696.037781,39.127930 
	C694.732605,44.131775 696.058777,48.695137 693.825317,52.989479 
	C689.199890,57.054127 686.200317,56.034058 684.990356,50.461674 
	C684.320740,47.377632 685.089417,44.190235 683.865051,41.098072 
	C685.204285,51.001633 684.828918,60.723278 680.933655,70.367233 
	C679.444763,71.034294 678.343445,71.005569 677.127563,69.858116 
	C662.018188,60.326645 649.501892,31.763218 664.841736,13.194438 
	C669.729614,7.277692 675.879456,3.767617 683.556274,1.903633 
	C684.418884,1.481917 685.025452,1.542450 685.783691,1.188660 
	C688.370544,1.000000 690.741150,1.000000 693.555847,1.000000 
	C694.419128,1.473438 694.996887,1.510873 695.809937,1.725119 
z"/>
<path fill="#FEFEFE" opacity="1.000000" stroke="none" 
	d="
M480.468658,564.000000 
	C483.513794,561.800720 487.545227,563.253784 491.311523,562.403870 
	C497.040405,561.111023 502.951080,560.623718 509.082642,559.519531 
	C510.412964,557.584229 512.241272,557.788635 513.796082,557.391052 
	C523.585510,554.888000 533.552429,552.986389 543.177429,548.593384 
	C559.263855,543.342590 573.555908,535.409607 587.283142,526.331055 
	C589.403198,524.928955 591.308716,522.653381 594.693604,523.785034 
	C606.391602,536.303833 619.389343,546.426331 634.762390,553.332275 
	C646.347717,558.536743 658.467163,561.743774 671.510010,563.124512 
	C672.118835,563.294800 672.307678,563.417847 672.248291,563.770508 
	C608.312439,564.000000 544.624878,564.000000 480.468658,564.000000 
z"/>
<path fill="#AFAFAF" opacity="1.000000" stroke="none" 
	d="
M458.920410,563.380127 
	C464.795471,563.196777 470.686035,563.221375 476.788269,563.622925 
	C471.311951,564.000000 465.623932,564.000000 459.467957,564.000000 
	C459.000000,564.000000 458.935852,563.588013 458.920410,563.380127 
z"/>
<path fill="#E6E6E6" opacity="1.000000" stroke="none" 
	d="
M672.399963,564.000000 
	C672.000000,564.000000 671.971008,563.584473 671.950562,563.378052 
	C673.135498,563.258484 674.340881,563.345215 675.773193,563.716003 
	C674.933289,564.000000 673.866638,564.000000 672.399963,564.000000 
z"/>
<path fill="#E6E6E6" opacity="1.000000" stroke="none" 
	d="
M690.399963,564.000000 
	C690.837891,562.731873 692.138062,563.075989 693.700195,563.105347 
	C694.069641,563.165649 694.028320,563.582275 694.014160,563.791138 
	C692.933289,564.000000 691.866638,564.000000 690.399963,564.000000 
z"/>
<path fill="#E6E6E6" opacity="1.000000" stroke="none" 
	d="
M696.033081,1.660419 
	C695.467529,1.766186 694.881836,1.652365 694.148071,1.269273 
	C694.444458,1.000000 694.888916,1.000000 695.666687,1.000000 
	C696.000000,1.000000 696.012878,1.440833 696.033081,1.660419 
z"/>
<path fill="#E6E6E6" opacity="1.000000" stroke="none" 
	d="
M685.666687,1.000006 
	C685.516113,1.307467 685.032166,1.614922 684.241028,1.883858 
	C683.933777,1.845340 683.975159,1.423314 683.987549,1.211657 
	C684.444458,1.000000 684.888916,1.000000 685.666687,1.000006 
z"/>
<path fill="#F4F4F4" opacity="1.000000" stroke="none" 
	d="
M349.236084,528.632935 
	C338.889740,531.398987 328.671478,533.590637 318.320038,534.618164 
	C306.968262,535.745117 295.630554,536.217529 284.091919,535.273560 
	C267.247406,533.895569 250.940903,530.738159 235.118469,525.099548 
	C213.314972,517.329346 193.730927,505.753723 176.047913,490.696106 
	C155.517944,473.214264 139.231155,452.458344 126.956688,428.629425 
	C116.568787,408.462982 109.843239,387.015747 105.850342,364.593933 
	C102.585953,346.262970 102.496819,327.856293 103.195839,309.470978 
	C103.760483,294.619965 106.151497,279.828949 110.116745,265.432495 
	C117.710922,237.860641 130.507416,212.816681 148.210083,190.414017 
	C166.907913,166.751968 189.278076,147.085449 214.850388,131.060089 
	C238.399017,116.302910 263.614136,105.376762 290.406311,98.099594 
	C310.446045,92.656479 330.810120,89.772339 351.613037,88.627388 
	C361.478180,88.084427 371.129303,90.108688 381.330872,88.988052 
	C382.770782,90.159927 382.545563,91.561798 382.228180,92.806190 
	C380.237000,100.613953 380.674805,108.692413 379.481079,116.587715 
	C378.672791,121.933815 380.567352,127.154892 380.379639,132.510956 
	C380.140167,139.344009 380.135986,139.475281 374.012207,142.101105 
	C357.840027,149.035675 347.472076,161.721710 339.709930,176.949081 
	C339.030975,178.281067 338.572449,179.729538 337.257751,181.119400 
	C333.189484,182.552658 330.423218,185.324814 327.660645,187.860443 
	C310.961487,203.187790 295.716644,219.757294 284.426147,240.045502 
	C281.106262,241.874832 278.911194,244.030151 279.135742,248.203094 
	C276.845551,255.935287 272.613464,262.409119 269.853882,269.584412 
	C262.442932,288.853912 257.242523,308.667572 255.606537,329.190857 
	C252.660080,366.154236 257.996948,401.869141 273.350647,435.902496 
	C284.659393,460.969696 300.183228,483.035278 319.719849,502.301453 
	C327.680908,510.152344 336.491394,517.014221 345.596069,523.498047 
	C347.304626,524.714783 349.502747,525.630249 349.236084,528.632935 
z"/>
<path fill="#F4F4F4" opacity="1.000000" stroke="none" 
	d="
M769.242676,367.026550 
	C759.060547,357.668518 748.644470,349.233459 736.558105,343.032898 
	C724.193726,336.689545 711.147095,332.654022 697.336792,330.914948 
	C692.539185,330.310822 687.761475,330.004669 682.488770,329.903503 
	C681.259094,329.135223 680.843323,328.208862 680.840637,327.190643 
	C680.823792,320.819092 679.466553,314.633972 678.255249,308.432495 
	C677.639893,305.282135 678.504944,303.257507 681.893616,302.609467 
	C686.949890,301.642456 690.360657,298.438995 693.359558,294.419708 
	C703.330505,281.056152 709.555359,265.779602 715.913269,250.588272 
	C724.785034,229.390320 732.010681,207.578918 739.451416,185.855698 
	C741.121094,180.981125 743.486877,176.991501 747.619995,173.703674 
	C755.494019,167.440033 761.281494,159.667618 762.909973,149.342377 
	C763.770752,143.884308 762.833252,141.422684 758.190979,138.385208 
	C753.916748,135.588516 748.958801,134.716736 744.154297,133.382645 
	C742.279541,132.862061 739.222290,132.833923 741.644165,129.185669 
	C750.170715,128.608963 757.660339,125.089355 765.674744,123.780701 
	C773.978821,122.424759 782.223877,120.724213 790.620178,119.981613 
	C791.681335,119.887764 792.579407,119.647400 793.031982,118.098595 
	C794.987122,116.385208 796.998108,116.553925 799.427490,117.326874 
	C801.692200,120.103058 804.451477,119.034760 806.752808,118.923996 
	C821.679016,118.205605 835.869080,120.724625 849.032104,128.025421 
	C862.109558,135.278778 872.065735,145.638687 879.783020,158.414429 
	C889.042603,173.743301 894.250244,190.469620 896.680420,207.980179 
	C898.502136,221.106613 898.490662,234.361435 897.213196,247.680908 
	C895.566406,264.852722 891.669922,281.364105 884.786377,297.080566 
	C871.760864,326.820099 851.936035,350.230316 820.552979,361.496979 
	C805.381287,366.943756 789.517029,369.747253 773.195068,367.074860 
	C772.057983,366.888702 770.867798,367.027191 769.242676,367.026550 
z"/>
<path fill="#E9E9E9" opacity="1.000000" stroke="none" 
	d="
M741.999023,128.616974 
	C740.831726,131.079651 741.436646,131.676956 743.791504,132.108490 
	C749.655457,133.183014 755.487793,134.558456 760.440979,138.230728 
	C763.971985,140.848541 765.108887,143.996048 764.417847,148.564011 
	C762.600586,160.575043 755.870422,169.162537 746.580505,176.198364 
	C744.384460,177.861557 742.869690,179.866272 741.965759,182.506516 
	C734.065857,205.579712 726.425720,228.754471 717.017151,251.273590 
	C710.429871,267.040070 703.965149,282.877472 693.334839,296.588074 
	C690.292542,300.511902 686.773621,303.202545 681.998230,303.889832 
	C679.180237,304.295410 678.824036,305.347229 679.390930,307.845673 
	C680.965942,314.787048 682.462769,321.761566 682.020630,329.410400 
	C655.304749,330.641876 631.226074,338.904907 610.153748,355.487610 
	C608.112610,357.093842 606.414978,356.835205 604.186279,356.226746 
	C592.717346,353.095673 581.198730,350.146576 568.521729,346.825989 
	C573.264160,357.457611 577.339294,367.190704 581.948181,376.664032 
	C584.128784,381.146149 584.221680,384.617279 581.583313,389.139099 
	C570.529297,408.084076 565.212280,428.714539 566.113281,450.646301 
	C567.241333,478.108917 576.606079,502.516968 594.867859,523.690918 
	C592.553711,523.565186 590.963745,525.312256 589.265869,526.482849 
	C576.721313,535.131592 563.368896,542.241699 549.238892,547.922058 
	C547.849792,548.480469 546.524475,549.141235 544.592407,549.022583 
	C542.168701,547.391968 542.051758,544.945984 541.836487,542.709961 
	C540.061646,524.279785 537.327087,505.950439 536.085083,487.037720 
	C537.183105,483.283600 536.466431,480.021179 535.794617,476.758209 
	C528.654358,442.081207 520.896729,407.533386 514.041626,372.797028 
	C513.433899,369.717529 512.397156,366.670319 513.004639,363.060028 
	C514.491760,359.625366 517.557190,358.800934 520.194031,357.548767 
	C531.646729,352.110138 542.699402,346.214722 551.297974,336.474945 
	C561.574097,324.834930 567.305664,311.425354 568.368591,295.958466 
	C568.523804,293.699707 567.531311,292.579712 565.509521,291.983429 
	C563.602966,291.421082 561.555786,291.381805 559.445068,290.174805 
	C557.066650,287.096893 556.786011,283.744934 556.659302,280.463867 
	C556.179749,268.045349 556.724182,255.655609 558.142578,243.307434 
	C558.274780,242.156738 558.390076,241.001770 558.555176,239.857269 
	C559.072998,236.267471 557.698425,234.159134 554.013611,233.556305 
	C551.569641,233.156464 549.115234,232.698715 546.509399,231.370453 
	C542.813538,228.070267 541.921387,223.703445 540.342407,219.725510 
	C539.516968,217.645966 540.364624,215.711197 542.304138,214.565826 
	C558.771301,204.841568 557.595581,183.746201 546.215942,168.964294 
	C540.562988,161.621292 533.382935,155.933685 524.640625,152.464355 
	C517.279480,149.543091 516.562988,147.631699 520.411743,140.015381 
	C536.767761,144.396362 552.412964,149.697388 567.093079,157.549728 
	C575.119385,161.842972 582.998108,166.364777 590.450806,171.619919 
	C591.875427,172.624466 593.181396,174.158813 595.607971,174.021790 
	C623.237732,194.314697 644.985291,219.320740 660.644043,249.540024 
	C662.022217,252.199524 663.215393,254.960144 664.719421,257.547333 
	C667.217346,261.844391 670.575684,261.825012 672.869751,257.463348 
	C675.192932,253.046127 677.396423,248.563919 679.619019,244.093658 
	C690.140686,222.931458 701.707458,202.318695 713.533813,181.886963 
	C720.832275,169.277817 724.644226,155.644562 728.724792,141.971298 
	C729.482971,139.430817 729.910950,136.768890 731.745911,134.264679 
	C735.204895,126.964790 735.936279,118.936081 740.688171,112.530769 
	C741.727661,111.129623 742.416626,108.684418 744.585327,109.599579 
	C746.815796,110.540848 746.227844,113.100227 745.782654,114.934410 
	C744.697205,119.405914 743.289307,123.799133 741.999023,128.616974 
z"/>
<path fill="#E9E9E9" opacity="1.000000" stroke="none" 
	d="
M349.397156,528.977173 
	C346.170166,523.815430 340.730225,521.639221 336.370453,518.322510 
	C312.066223,499.833344 293.428467,476.680054 278.853149,450.025909 
	C267.607941,429.461548 260.345886,407.528168 256.431580,384.506927 
	C255.162369,377.042389 253.836578,369.510071 253.986389,361.848724 
	C254.131180,354.444550 253.552368,347.074524 253.780273,339.625946 
	C254.509079,315.806702 259.856232,293.121368 267.964020,270.876923 
	C270.824219,263.029724 275.020447,255.847290 278.256775,247.765686 
	C279.566772,247.491608 280.392456,248.352356 281.386993,248.880386 
	C283.674988,250.095078 285.846771,250.019363 287.455994,247.817535 
	C289.148743,245.501495 288.185303,243.536652 286.247009,241.870377 
	C285.631775,241.341476 284.896912,240.965134 284.146667,240.094284 
	C285.632843,232.737152 290.735321,227.697754 294.687073,222.090759 
	C305.271118,207.073456 318.386444,194.340485 332.193420,182.304153 
	C333.118561,181.497665 334.068329,180.941650 335.687225,181.015045 
	C337.233215,182.611786 336.489594,184.232758 336.003601,185.766556 
	C329.722504,205.590424 334.935760,223.668015 344.342590,241.119324 
	C345.833191,243.884644 347.833893,246.372253 348.935883,249.770294 
	C349.486389,253.053177 347.936493,255.256729 346.464905,257.496857 
	C338.412567,269.754791 330.005310,281.769257 321.615570,293.796387 
	C318.232147,298.646729 318.283356,298.953827 322.299255,303.060059 
	C332.338806,313.325531 343.734985,321.520599 357.514801,326.072418 
	C358.927612,326.539154 360.405151,326.950348 361.515564,328.576843 
	C362.065338,331.141754 360.685394,332.722656 359.574463,334.340515 
	C354.858154,341.208923 350.697418,348.418457 346.421631,355.557617 
	C343.276611,360.808624 343.291565,361.512787 347.954163,365.625641 
	C355.096863,371.926147 363.883209,375.141754 372.626343,378.412842 
	C374.764801,379.212952 377.246735,379.395050 378.890900,381.891968 
	C380.017090,386.668121 380.536591,391.106262 380.539490,395.623322 
	C380.556641,422.215546 382.494049,448.757294 382.671173,475.350128 
	C382.708618,480.972717 383.856964,486.604004 383.493774,492.262360 
	C383.263885,495.844025 384.733704,497.515503 388.638489,497.750671 
	C389.523041,514.784790 391.160492,531.479370 392.907227,548.591064 
	C386.139160,548.790283 380.828247,544.752136 374.940247,542.362488 
	C367.609863,539.387451 360.996307,534.972900 354.278625,530.817261 
	C352.871887,529.947083 351.511169,529.011536 349.397156,528.977173 
z"/>
<path fill="#212121" opacity="1.000000" stroke="none" 
	d="
M348.454346,250.988373 
	C342.994537,241.506638 337.751862,232.383835 334.774872,222.110275 
	C330.824615,208.477966 330.739746,195.077286 336.043945,181.403183 
	C340.856567,171.935226 345.636017,162.853668 352.873474,155.349197 
	C359.546173,148.430344 366.991394,142.674332 376.377930,140.070175 
	C379.311279,139.256348 379.303101,137.711243 379.159760,135.341965 
	C378.234802,120.050613 377.802490,104.774338 381.790131,89.374733 
	C386.486206,72.044144 398.673004,62.410465 414.181824,56.259857 
	C430.147827,49.927937 446.719452,48.099316 463.666321,51.045326 
	C483.249390,54.449627 495.968781,67.334740 506.182220,83.104073 
	C517.163269,100.058548 522.361206,118.698082 520.756042,139.489105 
	C518.631348,148.549240 518.631348,148.549255 526.269531,151.840240 
	C544.143433,159.541397 556.268555,176.201004 555.972168,192.928772 
	C555.798218,202.744034 551.766296,210.588715 543.039001,215.466537 
	C540.592346,216.834030 540.111877,217.896973 541.484375,220.317642 
	C543.110474,223.185577 544.348877,226.273346 545.802307,229.614960 
	C544.207336,231.470856 542.373962,230.718430 540.661133,230.274078 
	C523.949890,225.938828 507.002014,222.492477 490.543640,217.213272 
	C481.500061,214.312424 473.112976,209.936966 464.803406,204.627655 
	C463.067719,200.435471 463.711823,196.422562 463.898926,192.456802 
	C464.039062,189.485886 466.499146,188.456375 468.681732,187.200867 
	C477.951660,181.868439 486.614014,175.764114 494.399994,168.337006 
	C506.307068,156.978836 509.630463,143.467789 505.838104,127.755402 
	C502.447876,113.708977 496.917145,100.557404 489.800385,88.028137 
	C488.745087,86.170235 487.274017,84.480667 487.140930,81.655167 
	C485.730804,88.378418 486.434509,94.779457 485.340668,101.048325 
	C483.261383,112.964920 480.351593,124.491997 473.482269,134.717484 
	C470.812653,138.691315 467.594635,141.954895 463.388580,144.182831 
	C452.758118,149.813797 447.419220,158.694794 446.226501,170.586182 
	C445.464020,178.187866 444.669495,185.817551 442.822571,193.293625 
	C441.158569,200.029099 438.218689,206.120575 434.249146,212.198792 
	C427.042908,222.672592 416.865417,226.509781 405.746460,222.832001 
	C387.051941,216.648468 374.627533,226.455048 362.114594,237.255356 
	C358.329254,240.522614 355.517395,244.686615 352.446075,248.600250 
	C351.456329,249.861465 350.711823,251.543503 348.454346,250.988373 
z"/>
<path fill="#F4F4F4" opacity="1.000000" stroke="none" 
	d="
M731.586426,133.990540 
	C729.578979,142.759369 727.070251,151.506302 724.796875,160.313995 
	C722.059143,170.920959 715.887939,179.870621 710.737732,189.250397 
	C698.107239,212.253418 685.045898,235.020462 673.734436,258.720428 
	C672.699097,260.889557 671.782532,262.120758 669.093140,262.104065 
	C666.330811,262.086884 664.910400,261.085175 663.788452,258.654602 
	C657.365967,244.740952 649.468262,231.698441 640.244263,219.458603 
	C629.407043,205.078156 616.850891,192.371078 602.955811,180.946198 
	C600.569092,178.983719 597.703613,177.518463 596.020508,174.374924 
	C622.135132,175.443726 646.435303,168.043411 670.240906,158.331375 
	C671.459351,157.834274 672.562561,157.054779 673.919922,156.105713 
	C677.471375,156.457703 678.599243,159.895294 681.409424,161.766907 
	C682.694031,164.916595 681.950378,169.499680 686.620850,169.282166 
	C690.660339,169.094055 689.547791,164.809067 690.646057,162.299423 
	C690.775391,162.003769 690.808289,161.665329 690.991577,161.001465 
	C693.911560,156.255615 695.774353,151.426956 697.717651,146.256424 
	C705.367676,144.222855 711.945801,140.346527 719.093506,137.978516 
	C723.122742,136.643646 726.865540,134.432510 731.586426,133.990540 
z"/>
<path fill="#B0B0B0" opacity="1.000000" stroke="none" 
	d="
M791.504150,104.487076 
	C790.101196,97.936790 787.295715,91.988274 788.907959,85.214081 
	C790.709106,77.646042 795.494812,72.285706 803.375610,70.476082 
	C809.407654,69.090988 817.211243,72.349655 820.801086,77.752800 
	C825.059509,84.162292 825.021301,91.324669 820.721924,97.900024 
	C817.110474,103.423241 812.102966,107.044540 805.449097,108.967331 
	C804.573120,109.239502 804.130127,109.149467 803.647827,108.361008 
	C803.393738,106.815025 803.719727,105.579895 803.296265,104.411613 
	C803.093445,103.763344 802.670044,104.337784 802.943909,104.506393 
	C804.125366,105.233879 803.257507,106.491058 803.273315,107.867882 
	C798.353516,110.333832 795.329407,106.706146 791.504150,104.487076 
z"/>
<path fill="#B0B0B0" opacity="1.000000" stroke="none" 
	d="
M697.824707,145.673920 
	C697.721008,151.664505 695.517029,156.536423 691.699341,161.155914 
	C691.046814,161.566528 690.619324,161.547379 689.903687,161.284988 
	C689.268311,160.875366 688.961243,160.575287 688.537354,159.956635 
	C687.945923,158.749390 687.901550,157.670685 687.059265,156.594666 
	C685.368652,155.549850 683.151794,155.564636 683.099915,153.100739 
	C682.997375,155.948242 683.797852,158.861359 682.346985,161.917908 
	C681.889893,162.270828 681.659912,162.343552 681.139038,162.201202 
	C678.007080,160.890732 676.384399,158.493164 674.392273,156.002319 
	C673.420288,153.790985 672.416931,151.827469 672.074036,149.754669 
	C670.779907,141.931686 674.733215,135.512894 681.489807,134.101608 
	C689.334412,132.463074 695.314087,136.621994 697.824707,145.673920 
z"/>
<path fill="#242424" opacity="1.000000" stroke="none" 
	d="
M698.753418,70.098076 
	C700.176941,70.039757 701.228760,69.910843 702.675415,69.835640 
	C702.730835,73.870125 702.494568,77.863045 702.027954,81.828865 
	C701.301819,88.000755 696.403992,92.542976 690.351562,92.850471 
	C684.447205,93.150459 678.967041,88.958046 677.871643,82.836441 
	C677.141174,78.754417 677.019958,74.563377 676.780823,69.940331 
	C677.899780,69.753685 678.864075,70.047821 680.204956,70.388824 
	C681.307495,70.191490 682.035706,69.958786 683.194824,70.027649 
	C687.755188,70.938446 691.941467,70.962502 696.503235,70.054161 
	C697.379150,69.921097 697.881470,69.935165 698.753418,70.098076 
z"/>
<path fill="#242424" opacity="1.000000" stroke="none" 
	d="
M791.165649,104.590622 
	C795.273376,104.393234 797.788635,108.551231 802.359985,108.361038 
	C802.991943,108.045448 803.241516,107.756355 803.722046,107.991539 
	C804.135010,108.751167 804.371460,108.900101 804.874756,108.979172 
	C803.890015,111.937790 802.765869,114.923767 800.020508,117.305832 
	C797.884705,118.185692 795.936279,118.317757 793.539795,117.766129 
	C788.065186,114.139206 789.903442,109.501083 791.165649,104.590622 
z"/>
<path fill="#AFAFAF" opacity="1.000000" stroke="none" 
	d="
M464.775482,204.170654 
	C486.105621,216.861343 510.092590,221.093170 533.512634,227.003372 
	C537.365112,227.975571 541.225159,228.917969 545.465454,229.919098 
	C549.680359,230.963470 553.497131,232.022491 557.347534,232.940811 
	C559.812866,233.528793 560.623230,234.431412 560.273926,237.376633 
	C558.675781,250.849564 557.536804,264.371826 557.967285,277.978821 
	C558.088379,281.806274 558.538452,285.530914 559.842590,289.533020 
	C561.094299,294.209381 560.397034,295.231842 555.459473,295.360229 
	C546.493774,295.593353 537.521851,295.420837 528.552612,295.441284 
	C520.465759,295.459686 520.479309,295.458710 517.519470,303.066864 
	C516.555664,305.544342 515.967407,308.211121 514.687378,310.510712 
	C509.021790,320.689087 509.023590,331.301300 511.268250,342.384827 
	C512.511230,348.522552 514.254333,354.652374 514.015869,361.455322 
	C515.170349,375.278259 518.669800,388.257904 521.325439,401.385590 
	C526.871887,428.802795 533.329346,456.031860 538.391418,483.551270 
	C538.573303,484.540253 539.085327,485.497131 537.328369,485.991760 
	C531.072449,487.818573 525.367188,486.875671 519.384521,484.567810 
	C475.592346,480.784180 432.685059,482.632568 391.036194,497.071289 
	C390.570129,497.232849 390.139496,497.496582 389.355164,497.856689 
	C382.038513,500.005768 382.172638,500.001923 381.954407,492.400665 
	C381.268005,468.491272 380.542480,444.577362 379.635284,420.682190 
	C379.144867,407.765137 379.957825,394.758728 378.011322,381.453125 
	C376.561890,379.388977 376.438477,377.383301 376.511780,375.394379 
	C376.975464,362.811859 374.792297,350.299011 375.506165,337.720490 
	C375.751648,333.395081 374.201782,331.305481 369.676117,331.223755 
	C367.076019,331.176788 364.397491,330.787720 361.545807,329.504974 
	C354.125519,325.658264 346.466888,323.416290 339.758148,319.006561 
	C332.199615,314.038208 325.436920,308.231689 319.273041,301.662537 
	C317.337738,299.600006 317.000732,298.015259 318.935822,295.292114 
	C328.174622,282.290833 337.049957,269.031036 346.031158,255.847229 
	C346.956146,254.489487 348.134949,253.227539 348.243469,251.045502 
	C351.790222,249.014343 353.021637,245.319855 355.346436,242.624329 
	C362.839752,233.936050 371.510468,226.895050 381.939606,222.010422 
	C388.059052,219.144333 394.181641,218.136963 400.718658,220.515640 
	C404.646759,221.945023 408.833038,222.412766 412.981567,222.459885 
	C421.195618,222.553207 427.794678,219.274277 432.720276,212.181427 
	C438.070312,213.529175 442.495575,216.558792 447.524963,218.188065 
	C450.189453,219.051239 452.759308,220.259903 455.591217,220.485718 
	C461.144928,220.928558 463.462402,218.775238 463.681000,213.214905 
	C463.796478,210.277878 463.151062,207.260056 464.775482,204.170654 
z"/>
<path fill="#212121" opacity="1.000000" stroke="none" 
	d="
M519.030884,484.723663 
	C524.724548,484.867310 530.415283,485.444061 536.534668,486.013184 
	C539.304138,506.733185 541.644897,527.460815 544.096680,548.605347 
	C542.642212,551.615784 539.718323,551.514465 537.329651,552.351074 
	C528.493469,555.446045 519.469971,557.865601 509.785187,559.242981 
	C507.605072,558.151428 507.826050,556.358154 508.087280,554.781677 
	C510.504883,540.190613 513.225159,525.646118 515.403198,511.020355 
	C516.684814,502.414307 519.295959,493.980377 519.030884,484.723663 
z"/>
<path fill="#E9E9E9" opacity="1.000000" stroke="none" 
	d="
M683.265991,70.811745 
	C682.387268,71.003296 681.741760,70.925896 680.838928,70.642090 
	C681.870605,61.551510 685.020020,52.780792 682.121582,43.638317 
	C681.835510,42.735794 681.936768,41.633106 682.125244,40.675907 
	C682.398010,39.290962 682.417664,37.278301 684.376404,37.422821 
	C685.911133,37.536057 686.025940,39.274788 686.032166,40.614780 
	C686.046875,43.764046 685.783813,46.931072 686.033752,50.058910 
	C686.407104,54.731152 688.579956,55.747944 692.807373,53.242722 
	C694.298279,57.176952 691.760071,58.813900 688.765808,58.325394 
	C685.613708,57.811150 685.536926,59.193249 685.289490,61.338631 
	C684.931091,64.447479 684.688965,67.590889 683.265991,70.811745 
z"/>
<path fill="#E9E9E9" opacity="1.000000" stroke="none" 
	d="
M699.152039,69.732101 
	C699.029053,70.499130 698.832886,70.751915 698.293091,70.902664 
	C693.976440,66.016815 694.240723,60.052536 693.664429,53.915436 
	C693.387878,53.441097 693.271667,53.312527 692.977783,52.992130 
	C694.715332,49.027191 693.753174,44.953545 694.051147,41.009521 
	C694.185059,39.237141 694.067749,36.569256 696.143860,36.550716 
	C698.527405,36.529438 698.408752,39.393204 697.923584,40.896774 
	C694.804932,50.561584 697.625671,59.886829 699.152039,69.732101 
z"/>
<path fill="#222222" opacity="1.000000" stroke="none" 
	d="
M237.087830,238.655396 
	C253.188965,243.052963 263.383942,257.255676 261.815125,272.661438 
	C260.201416,288.507568 247.582886,300.855286 231.940369,301.895081 
	C216.242401,302.938568 202.225235,292.452820 198.507660,276.885284 
	C193.114578,254.301514 212.817917,234.503677 237.087830,238.655396 
z"/>
<path fill="#B0B0B0" opacity="1.000000" stroke="none" 
	d="
M234.171341,201.466156 
	C231.388046,192.817200 233.950668,185.360779 241.047409,180.629517 
	C246.714447,176.851410 254.955765,177.458237 260.588684,182.068359 
	C266.190826,186.653336 268.545929,194.962936 265.607025,201.430344 
	C262.813873,207.577026 258.037292,211.572998 251.041351,211.965820 
	C243.259628,212.402771 237.610870,208.983932 234.171341,201.466156 
z"/>
<path fill="#242424" opacity="1.000000" stroke="none" 
	d="
M283.629211,239.870331 
	C287.006592,240.394318 289.110260,241.903687 289.291901,245.249802 
	C289.432526,247.839447 288.256714,249.810745 285.899506,250.664948 
	C282.920410,251.744522 280.453766,250.774460 278.613098,247.650299 
	C277.844818,243.476349 279.169495,240.798569 283.629211,239.870331 
z"/>
<path fill="#212121" opacity="1.000000" stroke="none" 
	d="
M514.244385,361.697754 
	C510.665466,350.039368 509.068481,337.924622 508.049347,325.714417 
	C507.889954,323.804657 508.655853,322.134705 509.307739,320.435486 
	C512.158630,313.004242 515.283386,305.664551 517.778870,298.116486 
	C518.949646,294.575043 520.727783,293.719055 524.193176,293.786499 
	C535.002014,293.996918 545.817749,293.838104 556.630554,293.883484 
	C558.831055,293.892731 560.778564,293.898499 559.957581,290.338562 
	C569.822083,290.637085 570.153625,290.675781 569.068848,299.968079 
	C566.233704,324.255493 552.985291,341.468323 531.905396,353.015930 
	C526.260071,356.108459 520.337891,358.695831 514.244385,361.697754 
z"/>
<path fill="#222222" opacity="1.000000" stroke="none" 
	d="
M361.077881,329.553833 
	C365.849579,328.282715 370.316132,330.342804 374.971436,330.112823 
	C377.536774,329.986053 376.744843,332.489807 376.789551,333.926636 
	C377.267944,349.307037 377.654785,364.690338 378.033966,380.541138 
	C365.461182,377.889435 353.868011,372.952667 344.179382,364.060150 
	C341.984741,362.045868 341.925659,360.612366 343.440094,358.222046 
	C349.385254,348.838593 355.142792,339.336243 361.077881,329.553833 
z"/>
<path fill="#E6E6E6" opacity="1.000000" stroke="none" 
	d="
M465.021362,203.451233 
	C465.039246,207.054916 465.004974,210.201324 464.997070,213.347778 
	C464.980316,220.026215 461.882233,222.811798 455.075623,221.860626 
	C451.301971,221.333267 447.815430,219.703934 444.296997,218.241364 
	C440.479248,216.654388 436.652252,215.133560 433.165405,212.304565 
	C440.346252,202.185135 442.684082,190.714798 444.029449,178.887192 
	C444.592621,173.935806 445.167419,168.961014 446.191223,164.092392 
	C447.824646,156.324509 451.398560,149.392975 458.688629,145.722397 
	C471.416443,139.313889 477.237122,128.155090 480.984131,115.373909 
	C483.996246,105.099442 485.078888,94.517311 485.559540,83.859177 
	C485.609741,82.745735 485.833435,81.640129 486.114136,79.465996 
	C497.637207,98.830139 507.356842,117.779144 508.534454,139.853760 
	C509.119659,150.823502 504.433716,159.776566 496.907104,167.524429 
	C488.946899,175.718536 479.984222,182.597382 469.847534,187.742905 
	C466.022186,189.684708 464.270935,191.750000 464.906006,196.006821 
	C465.246399,198.288818 464.975952,200.661957 465.021362,203.451233 
z"/>
<path fill="#242424" opacity="1.000000" stroke="none" 
	d="
M689.348267,160.958405 
	C690.340698,161.144699 690.657532,161.264206 691.226196,161.428528 
	C691.454407,161.800507 691.414185,162.127472 691.409912,162.454895 
	C691.362915,166.087509 691.791931,170.420319 686.750793,170.724152 
	C681.506958,171.040192 681.234802,166.641800 680.834106,162.395706 
	C681.052246,161.986023 681.256348,161.985931 681.759155,161.918182 
	C682.244995,161.718094 682.432251,161.585648 682.927612,161.299057 
	C685.031982,160.714905 686.853943,160.837875 689.348267,160.958405 
z"/>
<path fill="#E6E6E6" opacity="1.000000" stroke="none" 
	d="
M799.273926,98.184334 
	C799.733337,94.945511 799.318298,91.456497 802.318115,89.029587 
	C803.713806,91.899216 800.951843,93.544968 800.988342,95.798676 
	C801.003784,96.754448 800.646790,97.957352 801.693787,98.463203 
	C802.780151,98.988129 803.487000,97.952438 804.171692,97.277336 
	C805.903015,95.570427 805.876892,92.633003 808.542908,91.050598 
	C809.354248,95.374107 805.085571,97.419006 804.803406,100.915375 
	C803.157593,99.898247 800.716553,100.536186 799.273926,98.184334 
z"/>
<path fill="#E6E6E6" opacity="1.000000" stroke="none" 
	d="
M803.941284,108.097794 
	C803.743896,108.534752 803.534912,108.553688 803.034180,108.453583 
	C802.888245,106.937775 803.034180,105.541016 803.180054,104.144249 
	C803.429932,104.129997 803.679749,104.115746 803.929626,104.101494 
	C803.929626,105.294250 803.929626,106.487007 803.941284,108.097794 
z"/>
<path fill="#E6E6E6" opacity="1.000000" stroke="none" 
	d="
M799.008362,98.012398 
	C798.886047,98.103569 798.757996,98.994881 798.773315,97.996796 
	C798.946838,97.953094 798.989197,97.991287 799.008362,98.012398 
z"/>
<path fill="#E6E6E6" opacity="1.000000" stroke="none" 
	d="
M683.219849,161.732681 
	C682.981995,161.957809 682.505615,162.027054 682.281677,161.938812 
	C682.057739,157.537903 682.057739,153.225250 682.057739,147.650406 
	C684.557617,150.907303 682.871338,155.881027 687.766113,155.984207 
	C685.802612,157.831360 684.889038,159.890366 683.219849,161.732681 
z"/>
<path fill="#E6E6E6" opacity="1.000000" stroke="none" 
	d="
M687.997620,155.997131 
	C689.108032,156.865265 688.897156,158.115631 688.572632,159.674683 
	C686.960449,159.095749 686.931091,157.900223 687.776062,156.280579 
	C688.020264,155.977554 688.006226,155.992645 687.997620,155.997131 
z"/>
<path fill="#E6E6E6" opacity="1.000000" stroke="none" 
	d="
M688.985107,160.010727 
	C689.315247,160.106842 689.579468,160.299545 689.896362,160.809967 
	C690.023804,161.025177 690.006531,161.008011 690.015747,161.018723 
	C689.534790,161.255219 689.140076,161.143616 688.925354,160.343292 
	C689.010010,159.991898 688.994080,160.004807 688.985107,160.010727 
z"/>
<path fill="#B0B0B0" opacity="1.000000" stroke="none" 
	d="
M693.364380,53.861046 
	C696.447937,55.736740 694.583374,59.241417 695.827209,61.975922 
	C696.969666,64.487511 697.251526,67.390556 697.981079,70.499725 
	C693.344055,72.744881 688.524475,72.312744 683.361633,71.335785 
	C682.962952,65.914146 684.096802,60.918552 685.074585,55.363602 
	C688.453613,58.005749 691.456970,58.894196 693.364380,53.861046 
z"/>
<path fill="#AFAFAF" opacity="1.000000" stroke="none" 
	d="
M688.752502,159.747284 
	C689.127197,160.313080 689.329285,160.566544 689.820557,160.890869 
	C688.198059,162.724533 685.943848,162.277863 683.380188,162.116699 
	C683.463745,159.292740 683.850281,156.558395 687.652893,156.009689 
	C688.178528,157.152588 688.336792,158.327621 688.752502,159.747284 
z"/>
</svg>